<?xml version="1.0" encoding="UTF-8" standalone="no"?>
<svg
   xmlns:dc="http://purl.org/dc/elements/1.1/"
   xmlns:cc="http://creativecommons.org/ns#"
   xmlns:rdf="http://www.w3.org/1999/02/22-rdf-syntax-ns#"
   xmlns:svg="http://www.w3.org/2000/svg"
   xmlns="http://www.w3.org/2000/svg"
   xmlns:sodipodi="http://sodipodi.sourceforge.net/DTD/sodipodi-0.dtd"
   xmlns:inkscape="http://www.inkscape.org/namespaces/inkscape"
   xml:space="preserve"
   viewBox="19 19 154.58334 154.58334"
   height="210"
   width="210"
   y="0px"
   x="0px"
   id="Layer_1"
   version="1.1"
   sodipodi:docname="logo.svg"
   inkscape:version="0.92.2 5c3e80d, 2017-08-06"><metadata
     id="metadata4816"><rdf:RDF><cc:Work
         rdf:about=""><dc:format>image/svg+xml</dc:format><dc:type
           rdf:resource="http://purl.org/dc/dcmitype/StillImage" /><dc:title></dc:title></cc:Work></rdf:RDF></metadata><defs
     id="defs4814" /><sodipodi:namedview
     pagecolor="#ffffff"
     bordercolor="#666666"
     borderopacity="1"
     objecttolerance="10"
     gridtolerance="10"
     guidetolerance="10"
     inkscape:pageopacity="0"
     inkscape:pageshadow="2"
     inkscape:window-width="1440"
     inkscape:window-height="883"
     id="namedview4812"
     showgrid="false"
     fit-margin-top="0"
     fit-margin-left="0"
     fit-margin-right="0"
     fit-margin-bottom="0"
     inkscape:zoom="1.1232639"
     inkscape:cx="38.746808"
     inkscape:cy="-26.472905"
     inkscape:window-x="0"
     inkscape:window-y="17"
     inkscape:window-maximized="0"
     inkscape:current-layer="Layer_1" /><path
     id="path3"
     d="m 169.35748,119.96634 -4.394,-2.72 c -0.037,-0.428 -0.079,-0.855 -0.125,-1.28 l 3.776,-3.522 c 0.384,-0.358 0.556,-0.888 0.452,-1.401 -0.101,-0.515 -0.462,-0.939 -0.953,-1.122 l -4.827,-1.805 c -0.121,-0.418 -0.248,-0.833 -0.378,-1.246 l 3.011,-4.182 c 0.307,-0.425 0.37,-0.978 0.17,-1.463 -0.2,-0.483 -0.637,-0.829 -1.154,-0.914 l -5.09,-0.828003 c -0.198,-0.386 -0.404,-0.766 -0.612,-1.143 l 2.139,-4.695 c 0.219,-0.478 0.174,-1.034 -0.118,-1.468 -0.291,-0.436 -0.784,-0.691 -1.31,-0.671 l -5.166,0.18 c -0.267,-0.334 -0.539,-0.665 -0.816,-0.99 l 1.187,-5.032 c 0.12,-0.511 -0.031,-1.046 -0.403,-1.417 -0.369,-0.37 -0.905,-0.523 -1.416,-0.403 l -5.031,1.186 c -0.326,-0.276 -0.657,-0.549 -0.992,-0.816 l 0.181,-5.166 c 0.02,-0.523 -0.235,-1.02 -0.671,-1.31 -0.437,-0.292 -0.99,-0.336 -1.467,-0.119 l -4.694,2.14 c -0.379,-0.208 -0.759,-0.414 -1.143,-0.613 l -0.83,-5.091 c -0.084,-0.516 -0.43,-0.954 -0.914,-1.154 -0.483,-0.201 -1.037,-0.136 -1.462,0.17 l -4.185,3.011 c -0.412,-0.131 -0.826,-0.257 -1.244,-0.377 l -1.805,-4.828 c -0.183,-0.492 -0.607,-0.853 -1.122,-0.955 -0.514,-0.101 -1.043,0.07 -1.4,0.452 l -3.522,3.779 c -0.425,-0.047 -0.853,-0.09 -1.28,-0.125 l -2.72,-4.395 c -0.275,-0.445 -0.762,-0.716 -1.286,-0.716 -0.524,0 -1.011,0.271 -1.285,0.716 l -2.72,4.395 c -0.428,0.035 -0.856,0.078 -1.281,0.125 l -3.523,-3.779 c -0.357,-0.382 -0.887,-0.553 -1.4,-0.452 -0.515,0.103 -0.939,0.463 -1.122,0.955 l -1.805,4.828 c -0.418,0.12 -0.832,0.247 -1.245,0.377 l -4.183994,-3.011 c -0.425,-0.307 -0.979,-0.372 -1.463,-0.17 -0.483,0.2 -0.83,0.638 -0.914,1.154 l -0.83,5.091 c -0.384,0.199 -0.764,0.404 -1.143,0.613 l -4.694,-2.14 c -0.477,-0.218 -1.033,-0.173 -1.467,0.119 -0.436,0.29 -0.691,0.787 -0.671,1.31 l 0.18,5.166 c -0.334,0.267 -0.665,0.54 -0.992,0.816 l -5.031,-1.186 c -0.511,-0.119 -1.047,0.033 -1.417,0.403 -0.372,0.371 -0.523,0.906 -0.403,1.417 l 1.185,5.032 c -0.275,0.326 -0.547,0.656 -0.814,0.99 l -5.166,-0.18 c -0.521,-0.015 -1.019,0.235 -1.31,0.671 -0.292,0.434 -0.336,0.99 -0.119,1.468 l 2.14,4.695 c -0.208,0.377 -0.414,0.757 -0.613,1.143 l -5.09,0.828003 c -0.517,0.084 -0.953,0.43 -1.154,0.914 -0.2,0.485 -0.135,1.038 0.17,1.463 l 3.011,4.182 c -0.131,0.413 -0.258,0.828 -0.378,1.246 l -4.828,1.805 c -0.49,0.183 -0.851,0.607 -0.953,1.122 -0.102,0.514 0.069,1.043 0.452,1.401 l 3.777,3.522 c -0.047,0.425 -0.089,0.853 -0.125,1.28 l -4.394,2.72 c -0.445,0.275 -0.716,0.761 -0.716,1.286 0,0.525 0.271,1.011 0.716,1.285 l 4.394,2.72 c 0.036,0.428 0.078,0.855 0.125,1.28 l -3.777,3.523 c -0.383,0.357 -0.554,0.887 -0.452,1.4 0.102,0.515 0.463,0.938 0.953,1.122 l 4.828,1.805 c 0.12,0.418 0.247,0.833 0.378,1.246 l -3.011,4.183 c -0.306,0.426 -0.371,0.979 -0.17,1.462 0.201,0.485 0.638,0.831 1.155,0.914 l 5.089,0.828 c 0.199,0.386 0.403,0.766 0.613,1.145 l -2.14,4.693 c -0.218,0.477 -0.173,1.032 0.119,1.468 0.292,0.437 0.789,0.692 1.31,0.671 l 5.164,-0.181 c 0.269,0.336 0.54,0.665 0.816,0.992 l -1.185,5.033 c -0.12,0.51 0.031,1.043 0.403,1.414 0.369,0.373 0.906,0.522 1.417,0.402 l 5.031,-1.185 c 0.327,0.278 0.658,0.548 0.992,0.814 l -0.18,5.167 c -0.02,0.523 0.235,1.019 0.671,1.311 0.434,0.291 0.99,0.335 1.467,0.117 l 4.694,-2.139 c 0.378,0.21 0.758,0.414 1.143,0.613 l 0.83,5.088 c 0.084,0.518 0.43,0.956 0.914,1.155 0.483,0.201 1.038,0.136 1.463,-0.169 l 4.181994,-3.013 c 0.413,0.131 0.828,0.259 1.246,0.379 l 1.805,4.826 c 0.183,0.49 0.607,0.853 1.122,0.953 0.514,0.104 1.043,-0.068 1.4,-0.452 l 3.523,-3.777 c 0.425,0.049 0.853,0.09 1.281,0.128 l 2.72,4.394 c 0.274,0.443 0.761,0.716 1.285,0.716 0.524,0 1.011,-0.272 1.286,-0.716 l 2.72,-4.394 c 0.428,-0.038 0.855,-0.079 1.28,-0.128 l 3.522,3.777 c 0.357,0.384 0.887,0.556 1.4,0.452 0.515,-0.101 0.939,-0.463 1.122,-0.953 l 1.805,-4.826 c 0.418,-0.12 0.833,-0.248 1.246,-0.379 l 4.183,3.013 c 0.425,0.305 0.979,0.37 1.462,0.169 0.484,-0.199 0.83,-0.638 0.914,-1.155 l 0.83,-5.088 c 0.384,-0.199 0.764,-0.406 1.143,-0.613 l 4.694,2.139 c 0.477,0.218 1.032,0.174 1.467,-0.117 0.436,-0.292 0.69,-0.787 0.671,-1.311 l -0.18,-5.167 c 0.334,-0.267 0.665,-0.536 0.991,-0.814 l 5.031,1.185 c 0.511,0.12 1.047,-0.029 1.416,-0.402 0.372,-0.371 0.523,-0.904 0.403,-1.414 l -1.185,-5.033 c 0.276,-0.327 0.548,-0.656 0.814,-0.992 l 5.166,0.181 c 0.521,0.021 1.019,-0.234 1.31,-0.671 0.292,-0.436 0.337,-0.991 0.118,-1.468 l -2.139,-4.693 c 0.209,-0.379 0.414,-0.759 0.612,-1.145 l 5.09,-0.828 c 0.518,-0.083 0.954,-0.429 1.154,-0.914 0.2,-0.483 0.137,-1.036 -0.17,-1.462 l -3.011,-4.183 c 0.13,-0.413 0.257,-0.828 0.378,-1.246 l 4.827,-1.805 c 0.491,-0.184 0.853,-0.607 0.953,-1.122 0.104,-0.514 -0.068,-1.043 -0.452,-1.4 l -3.776,-3.523 c 0.046,-0.425 0.088,-0.853 0.125,-1.28 l 4.394,-2.72 c 0.445,-0.274 0.716,-0.761 0.716,-1.285 0,-0.524 -0.27,-1.011 -0.715,-1.286 z m -29.409,36.451 c -1.678,-0.362 -2.745,-2.016 -2.385,-3.699 0.359,-1.681 2.012,-2.751 3.689,-2.389 1.678,0.359 2.747,2.016 2.387,3.696 -0.36,1.68 -2.014,2.751 -3.691,2.392 z m -1.493,-10.098 c -1.531,-0.328 -3.037,0.646 -3.365,2.18 l -1.56,7.28 c -4.814,2.185 -10.16,3.399 -15.79,3.399 -5.759,0 -11.221,-1.274 -16.121,-3.552 l -1.55899,-7.28 c -0.328004,-1.532 -1.834004,-2.508 -3.364004,-2.179 l -6.427,1.38 c -1.193,-1.228 -2.303,-2.536 -3.323,-3.917 h 31.271994 c 0.354,0 0.59,-0.064 0.59,-0.386 v -11.062 c 0,-0.322 -0.236,-0.386 -0.59,-0.386 h -9.146 v -7.012 h 9.892 c 0.903,0 4.828,0.258 6.083,5.275 0.393,1.543 1.256,6.562 1.846,8.169 0.588,1.802 2.982,5.402 5.533,5.402 h 15.583 c 0.177,0 0.366,-0.02 0.565,-0.056 -1.081,1.469 -2.267,2.859 -3.544,4.158 z m -43.251994,9.946 c -1.678,0.362 -3.33,-0.708 -3.691,-2.389 -0.359,-1.684 0.708,-3.337 2.386,-3.699 1.678,-0.359 3.331,0.711 3.691,2.392 0.359,1.68 -0.709,3.336 -2.386,3.696 z m -11.863,-48.105 c 0.696,1.571 -0.012,3.412 -1.581,4.107 -1.569,0.697 -3.405,-0.012 -4.101,-1.584 -0.696,-1.572 0.012,-3.41 1.581,-4.107 1.57,-0.696 3.405,0.012 4.101,1.584 z m -3.646,8.643 6.695,-2.975 c 1.43,-0.635 2.076,-2.311 1.441,-3.744 l -1.379,-3.118 h 5.423 v 24.444 h -10.941 c -0.949,-3.336 -1.458,-6.857 -1.458,-10.496 0,-1.389 0.075,-2.762 0.219,-4.111 z m 29.379994,-2.374 v -7.205 h 12.914 c 0.667,0 4.71,0.771 4.71,3.794 0,2.51 -3.101,3.41 -5.651,3.41 h -11.973 z m 46.932,6.485 c 0,0.956 -0.035,1.902 -0.105,2.841 h -3.926 c -0.393,0 -0.551,0.258 -0.551,0.643 v 1.803 c 0,4.244 -2.393,5.167 -4.49,5.402 -1.997,0.225 -4.211,-0.836 -4.484,-2.058 -1.178,-6.626 -3.141,-8.041 -6.241,-10.486 3.847,-2.443 7.85,-6.047 7.85,-10.871 0,-5.209 -3.571,-8.490003 -6.005,-10.099003 -3.415,-2.251 -7.196,-2.702 -8.216,-2.702 H 89.235486 c 5.506,-6.145 12.967994,-10.498 21.407994,-12.082 l 4.786,5.021 c 1.082,1.133 2.874,1.175 4.006,0.092 l 5.355,-5.122 c 11.221,2.089 20.721,9.074 26.196,18.657003 l -3.666,8.28 c -0.633,1.433 0.013,3.109 1.442,3.744 l 7.058,3.135 c 0.122,1.253 0.186,2.519 0.186,3.802 z m -40.575,-41.880003 c 1.24,-1.188 3.207,-1.141 4.394,0.101 1.185,1.245 1.14,3.214 -0.103,4.401 -1.24,1.188 -3.207,1.142 -4.394,-0.102 -1.184,-1.243 -1.139,-3.212 0.103,-4.4 z m 36.38,29.277003 c 0.695,-1.571 2.531,-2.28 4.1,-1.583 1.569,0.696 2.277,2.536 1.581,4.107 -0.695,1.572 -2.531,2.281 -4.101,1.584 -1.567,-0.696 -2.275,-2.535 -1.58,-4.108 z"
     inkscape:connector-curvature="0" /><g
     transform="matrix(0.3088164,0,0,0.3088164,20.666832,12.095297)"
     id="layer1"><path
       id="path1309"
       style="fill:#d00000;fill-opacity:1;fill-rule:evenodd;stroke:#000000;stroke-width:0.83349466px;stroke-linecap:butt;stroke-linejoin:miter;stroke-opacity:1"
       d="m 234.10295,28.783327 c -28.10056,7.733968 -56.90414,23.114414 -77.16658,38.006479 -20.26243,14.892057 -73.190777,52.416304 -85.274538,64.306944 -11.715979,11.52873 -25.555008,15.55018 -31.610801,29.75626 -2.335424,5.47857 15.83661,22.00519 19.397534,23.721 9.241286,4.45282 24.304529,-3.44276 31.177964,-3.91429 22.307191,-1.53031 45.167011,-4.49872 67.760351,10.79277 -4.18054,4.22051 2.45801,-0.32326 -6.08769,36.69347 -3.01352,13.05342 -9.59873,46.91908 -1.50714,53.3804 8.03941,6.41966 12.94944,-18.60581 20.93693,-14.77435 -0.004,0.006 -0.002,0.0211 -0.005,0.0264 -0.002,0.005 -0.004,0.0222 -0.005,0.0264 4.7e-4,0.004 -0.006,0.0233 -0.005,0.0264 0.003,0.003 0.0211,0.003 0.0249,0.005 0.0243,0.007 0.0777,0.004 0.12879,-0.002 0.015,0.007 0.0346,0.002 0.0497,0.01 0.0565,0.0271 0.1079,0.0591 0.16488,0.0866 l 0.0475,-0.12728 c 3.78138,-0.97727 33.26276,-13.96581 60.17617,-8.74298 15.17141,2.94415 39.36936,-5.30957 53.29004,-9.61521 22.07602,-6.82803 53.06775,-12.99841 72.72796,-13.35072 14.48306,-0.25953 27.58714,-8.45898 41.52062,-9.41484 8.22039,-0.56393 0.59821,-27.06599 0.4283,-29.86559 -0.81659,-13.45508 -17.56507,-34.13032 -26.19103,-52.50369 -8.62596,-18.37338 -23.08213,-41.697 -39.00385,-59.986157 -15.92034,-18.289939 -37.40028,-41.972174 -52.5239,-49.259355 -15.12361,-7.287181 -17.9532,-13.675443 -48.45111,-5.281661 z"
       inkscape:connector-curvature="0" /><path
       id="path5882"
       style="opacity:0.10112359;fill:#0e0000;fill-opacity:1;fill-rule:evenodd;stroke:none;stroke-width:1px;stroke-linecap:butt;stroke-linejoin:miter;stroke-opacity:1"
       d="m 166.95567,93.343683 c -18.23272,4.41659 -33.84758,62.691407 -56.31899,72.821827 -14.697321,6.62576 -54.749039,16.69269 -51.188115,18.4085 9.241286,4.45282 24.304529,-3.44276 31.177964,-3.91429 22.307191,-1.53031 45.167011,-4.49872 67.760351,10.79277 -4.18054,4.22051 2.45801,-0.32326 -6.08769,36.69347 -3.01352,13.05342 -9.59873,46.91908 -1.50714,53.3804 8.03941,6.41966 12.94944,-18.60581 20.93693,-14.77435 -0.004,0.006 -0.002,0.0211 -0.005,0.0264 -0.002,0.005 -0.004,0.0222 -0.005,0.0264 4.7e-4,0.004 -0.006,0.0233 -0.005,0.0264 0.003,0.003 0.0211,0.003 0.0249,0.005 0.0243,0.007 0.0777,0.004 0.12879,-0.002 0.015,0.007 0.0346,0.002 0.0497,0.01 0.0565,0.0271 0.1079,0.0591 0.16488,0.0866 l 0.0475,-0.12728 c 3.78138,-0.97727 33.26276,-13.96581 60.17617,-8.74298 15.17141,2.94415 39.36936,-5.30957 53.29004,-9.61521 22.07602,-6.82803 53.06775,-12.99841 72.72796,-13.35072 14.48306,-0.25953 27.58714,-8.45898 41.52062,-9.41484 8.22039,-0.56393 -51.08531,4.52064 -27.44964,-12.57577 10.48531,-7.58433 -104.98388,15.80767 -149.31404,-34.77677 -43.89537,-50.0883 -37.45534,-89.505577 -56.12656,-84.982777 z"
       inkscape:connector-curvature="0" /><path
       id="path5878"
       style="opacity:0.26966289;fill:#000000;fill-opacity:1;fill-rule:evenodd;stroke:#000000;stroke-width:0.83016068;stroke-linecap:butt;stroke-linejoin:miter;stroke-miterlimit:4;stroke-dasharray:none;stroke-opacity:1"
       d="m 41.923132,154.63221 c 3.550897,2.3529 27.397959,32.51694 30.215216,30.40575 0.340584,-3.33088 -2.440653,-4.64208 -4.39708,-5.02241 2.619616,-3.32925 3.113447,-6.81056 -1.432527,-7.10965 -5.040198,-0.88997 -10.542525,-1.51433 -5.132485,-6.93595 2.497843,-3.03871 -0.167946,-8.43506 -1.701721,-11.17993 -4.029518,-2.17638 -7.065984,-6.11435 -8.717627,-8.79126"
       inkscape:connector-curvature="0" /><path
       id="path5003"
       style="opacity:0.294045;fill:#000000;fill-opacity:1;fill-rule:evenodd;stroke:#000000;stroke-width:0.60142648px;stroke-linecap:butt;stroke-linejoin:miter;stroke-opacity:1"
       d="m 365.59735,219.58638 c -7.45124,-2.6426 -16.80117,-5.69478 -23.38958,-5.28735 -4.52499,-3.82248 -7.99822,0.88787 -11.91885,2.14156 -0.65797,-7.35971 -11.51071,3.11231 -16.29132,3.17249 -3.39452,1.94833 -1.05481,-5.80054 -7.13354,-2.85309 -7.55754,0.71399 -12.23241,1.23324 -17.83876,3.66049 -1.34666,8.01279 -13.44905,12.52661 -15.26046,3.7443 -6.59856,2.87141 -18.86884,8.44118 -18.94833,-0.64164 -10.56431,8.19396 -10.90033,15.59836 -21.21381,19.55298 0.9126,-7.09218 -22.37063,-10.90803 -25.54443,-3.46471 -6.38963,2.57308 1.32915,-9.32097 -7.90455,-6.05233 -10.40062,-3.02386 -4.34704,17.93464 -25.55362,9.36597 -11.8077,-0.37983 -5.2687,16.71929 -13.06117,23.88224 -2.0761,7.53231 -11.08359,-2.62404 -14.72934,-2.06009 0.84794,11.92658 3.40768,7.88228 0.71924,15.9966 -1.60415,10.16538 -3.75129,15.25548 7.43178,17.37239 3.62121,-4.90361 -0.18204,-2.829 0.62793,6.21747 6.45765,-1.87978 14.94635,-12.63999 14.07505,-1.58144 4.38202,-6.67329 18.25435,-10.15139 18.07994,-17.33913 7.02184,0.73709 14.90236,8.57944 20.82979,-0.95299 5.95076,-7.0412 14.50445,-10.30685 14.59427,-4.86854 7.23377,6.7565 7.95724,5.38728 15.478,3.66781 -1.93719,-8.71166 17.59935,-0.59858 7.28271,-9.27171 4.09757,-4.10343 15.18748,-6.50139 21.59622,-5.07542 5.66947,8.25419 22.94407,8.93721 25.63186,-1.74704 0.56398,-8.40429 13.68224,-11.27875 18.58724,-5.46823 8.52969,-7.4786 21.98421,3.38849 29.32409,-2.3442 -6.59758,-8.56295 9.32443,-14.15812 12.29788,-7.59298 5.84169,-3.13663 11.27804,-14.42284 17.66836,-6.34283 7.34987,-2.39523 16.32468,-5.72557 22.54222,-8.22182 4.66667,7.69315 16.74733,-0.2211 11.51054,-9.53228 -2.83483,-6.65069 9.30974,3.27444 6.00348,-5.16367 -3.76088,-9.07689 -9.04264,-21.69181 -15.51378,-21.2748 -8.8124,-2.20185 -14.03766,3.74492 -14.40344,12.16045 -0.11143,-6.14114 -10.52227,-0.15499 -15.9832,2.07193 l -2.99388,0.71227 -3.57688,-2.52294"
       inkscape:connector-curvature="0" /><path
       id="path1307"
       style="fill:#ffffff;fill-opacity:1;fill-rule:evenodd;stroke:#000000;stroke-width:0.60142648px;stroke-linecap:butt;stroke-linejoin:miter;stroke-opacity:1"
       d="m 370.52395,221.8307 c -7.45124,-2.6426 -14.35623,-3.01411 -20.94463,-2.60667 -4.52499,-3.82249 -9.89492,-2.56891 -13.81555,-1.31521 -0.65796,-7.35972 -9.61402,6.56907 -14.39462,6.62925 -3.39454,1.94834 -1.05481,-5.80052 -7.13355,-2.85309 -7.55754,0.71399 -16.31902,-3.97224 -21.92537,-1.54499 -1.34666,8.01279 -13.44905,12.52661 -15.26045,3.7443 -6.59857,2.87142 -14.78225,13.64667 -14.86172,4.56385 -12.38454,-0.5429 -17.69005,11.63327 -28.00354,15.58789 0.91261,-7.09217 -15.5809,-6.94295 -18.75471,0.50038 -6.38962,2.57308 -1.69916,-13.4386 -10.93286,-10.16996 -10.40061,-3.02386 -10.11666,17.69747 -22.52531,13.48359 -11.80769,-0.37983 -10.15859,11.35793 -17.95107,18.52087 -2.07609,7.53232 -6.19368,2.73734 -9.83944,3.30129 5.99914,8.51379 -18.39263,6.74041 -11.15151,19.87036 -1.60415,10.16538 0.84851,17.47186 12.03157,19.58876 3.62121,-4.9036 7.08893,-8.91913 7.8989,0.12733 6.45764,-1.87977 14.94635,-12.63998 14.07504,-1.58143 4.38203,-6.67329 18.25435,-10.15139 18.07994,-17.33913 7.02184,0.73709 14.90236,8.57943 20.82979,-0.953 5.95076,-7.04119 6.93352,-1.29602 7.02333,4.14228 7.23377,6.75651 15.52819,-3.62354 23.04894,-5.343 -1.93719,-8.71165 17.59935,-0.59858 7.28272,-9.27172 4.09756,-4.10342 15.18748,-6.50139 21.59622,-5.07542 5.62317,5.3341 22.94406,8.93722 25.63186,-1.74704 0.56398,-8.40429 13.68223,-11.27874 18.58724,-5.46823 8.52968,-7.47859 21.9842,3.3885 29.32408,-2.34419 -6.59758,-8.56296 9.32444,-14.15812 12.29788,-7.59298 5.84169,-3.13663 11.27804,-14.42284 17.66837,-6.34283 7.34985,-2.39523 16.32467,-5.72558 22.54222,-8.22183 4.66666,7.69315 16.74733,-0.2211 11.51053,-9.53227 -2.83483,-6.65069 9.30974,3.27444 6.00349,-5.16367 0.0738,-9.65646 -3.56311,-24.59965 -15.51378,-21.2748 -8.81241,-2.20185 -14.03766,3.74491 -14.40345,12.16044 -0.11143,-6.14113 -14.02552,-3.92353 -19.48644,-1.69661 l -1.78895,0.9461 -1.27857,1.01177"
       inkscape:connector-curvature="0" /><path
       id="path3126"
       style="fill:none;fill-opacity:0.75;fill-rule:evenodd;stroke:#000000;stroke-width:0.83349466px;stroke-linecap:butt;stroke-linejoin:miter;stroke-opacity:1"
       d="m 155.67981,210.88831 c 3.14012,-40.84748 23.78547,-59.45023 20.15126,-92.12062 -2.14808,-19.310467 -19.537,-4.67273 -13.86936,13.44173"
       inkscape:connector-curvature="0" /><path
       id="path3249"
       style="opacity:0.11235956;fill:#000000;fill-opacity:1;fill-rule:evenodd;stroke:none;stroke-width:0.7215721px;stroke-linecap:butt;stroke-linejoin:miter;stroke-opacity:1"
       d="m 163.97802,266.61875 c -2.07609,7.53231 -6.19368,2.73733 -9.83944,3.30128 5.99914,8.51379 -18.39263,6.74042 -11.15152,19.87037 -1.60414,10.16538 0.84852,17.47185 12.03159,19.58875 3.6212,-4.9036 7.08892,-8.91913 7.89889,0.12734 6.45764,-1.87978 14.94635,-12.63999 14.07505,-1.58144 4.38202,-6.67328 18.25434,-10.15139 18.07993,-17.33912 7.02184,0.73708 14.56587,7.34967 20.4933,-2.18275 5.95076,-7.0412 7.27,-0.0663 7.35982,5.37202 7.23377,6.75652 15.52819,-3.62353 23.04895,-5.34299 -1.9372,-8.71166 8.86645,-1.54524 7.2827,-9.27172 -1.03721,-5.06015 33.64493,-3.56205 28.65668,-8.51045 -14.90587,-14.78677 -38.19112,7.49212 -41.55999,6.0701 -3.36887,-1.42201 -7.09125,-0.55957 -2.38487,-2.71925 4.70639,-2.15967 -6.74248,1.39249 -16.27743,-1.99436 -9.53496,-3.38685 -16.51439,0.89493 -17.1513,9.34281 -7.18176,-4.46668 -7.69633,0.60685 -18.88509,3.71804 7.12945,-10.42281 -12.5996,-2.76884 -12.5996,-2.76884 0,0 3.43729,-11.42797 -2.73938,-9.91964 3.32068,-5.96418 -0.36489,-7.80159 -0.36489,-7.80159 0,0 1.81907,-5.12151 -5.9734,2.04144 z"
       inkscape:connector-curvature="0" /><path
       id="path2251"
       style="fill:#ffffff;fill-opacity:1;fill-rule:evenodd;stroke:#000000;stroke-width:0.81360233;stroke-linecap:butt;stroke-linejoin:miter;stroke-miterlimit:4;stroke-dasharray:none;stroke-opacity:1"
       d="m 46.944746,146.2449 c -1.301678,-2.31828 -5.35751,-2.9566 -5.879409,-4.92258 0.90649,-2.28341 -2.659108,-0.62717 -3.361697,-1.88241 -4.194454,3.43361 -9.9845,4.91989 -13.092707,9.64254 1.652786,-0.36247 1.648832,-2.77858 -0.157056,-0.99615 -3.401098,1.68966 -6.688157,4.65771 -5.409253,8.89282 0.309772,2.17325 -2.425553,4.04333 0.913564,4.55805 -0.435409,3.47934 -5.654943,3.33284 -5.658053,6.4037 1.15534,3.3495 0.647111,6.84015 -2.100735,9.18954 -2.7180283,2.54178 -1.598648,6.28312 -1.499585,9.37085 -1.3669853,2.06531 -2.1364273,3.98573 -0.334716,5.95301 0.381454,3.5482 3.326995,5.89755 3.348942,9.5893 1.240053,1.93493 3.726708,1.8152 4.99685,4.00177 3.710475,0.3154 3.982719,5.49648 7.517208,6.2151 3.036183,0.99028 6.628635,0.30362 9.364415,1.02979 2.243733,1.81902 4.819206,3.08691 7.64389,3.59772 3.550896,2.25998 4.757769,-3.36478 6.906731,-5.17595 0.111428,-2.83195 2.146008,-3.05232 3.508535,-0.6677 3.101,2.10235 6.314017,-1.51811 8.537176,-3.43384 2.173489,-2.36905 4.611889,-4.42 7.032089,-6.49716 3.435924,-3.87856 4.655818,-9.42971 4.463567,-14.53502 0.340584,-3.19933 -2.634125,-3.37634 -4.590549,-3.74166 0.884588,-2.68233 3.113445,-6.54159 -1.432528,-6.82885 -2.606958,-0.6809 -8.517294,-3.59356 -5.132485,-6.66202 2.497843,-2.91871 -0.939756,-6.84771 -2.473531,-9.48419 -2.656218,-2.11406 -4.199508,-5.05895 -5.85115,-7.63014 -3.197679,-0.50952 -6.194337,-2.45275 -7.009506,-5.8451 -0.853644,-2.69404 -0.236398,-0.69903 0.03297,0.61246"
       inkscape:connector-curvature="0" /><path
       id="path4128"
       style="opacity:0.0955056;fill:#000000;fill-opacity:1;fill-rule:evenodd;stroke:none;stroke-width:0.99599999;stroke-linecap:butt;stroke-linejoin:miter;stroke-miterlimit:4;stroke-dasharray:none;stroke-opacity:1"
       d="m 20.404837,181.84614 c -1.601293,-1.9684 4.721412,-1.04116 4.199512,-3.00714 0.90649,-2.28339 -0.178267,-2.37846 -0.880857,-3.63371 -4.194453,3.43361 -3.206637,-4.70088 -6.314844,0.0218 1.652786,-0.36246 1.381011,-6.33357 -0.424877,-4.55114 -3.401098,1.68965 -2.680526,-5.80591 -2.683636,-2.73505 1.15534,3.3495 0.647111,6.84015 -2.100735,9.18954 -2.7180283,2.54178 -1.598648,6.28312 -1.499585,9.37085 -1.3669853,2.06531 -2.1364273,3.98573 -0.334716,5.95301 0.381454,3.5482 3.326995,5.89755 3.348942,9.5893 1.240053,1.93493 3.726708,1.8152 4.99685,4.00177 3.710475,0.3154 3.982719,5.49648 7.517208,6.2151 3.036183,0.99028 6.628635,0.30362 9.364415,1.02979 2.243733,1.81902 4.819206,3.08691 7.64389,3.59772 3.550896,2.25998 4.757769,-3.36478 6.906731,-5.17595 0.111428,-2.83195 2.146008,-3.05232 3.508535,-0.6677 3.101,2.10235 6.314017,-1.51811 8.537176,-3.43384 2.173489,-2.36905 -8.345955,0.35931 -5.925755,-1.71784 3.43592,-3.87857 -7.75248,5.41378 -7.944735,0.30847 0.340581,-3.19932 -12.370379,4.07056 -9.678506,-1.55391 0.884591,-2.68233 1.535909,-0.7479 -3.010064,-1.03517 -2.606958,-0.6809 -9.803527,-5.4936 -6.418718,-8.56206 2.497844,-2.91871 -1.342064,0.45638 -2.875839,-2.18009 -2.656219,-2.11406 -0.95965,-0.95001 -2.611292,-3.52118 -3.197679,-0.50952 -1.791784,-1.81661 -2.606953,-5.20895 -1.383361,3.98006 -0.981514,-3.60508 -0.712147,-2.29359 z"
       inkscape:connector-curvature="0" /><path
       id="path5880"
       style="fill:#000000;fill-opacity:0.22346371;fill-rule:evenodd;stroke:none;stroke-width:1px;stroke-linecap:butt;stroke-linejoin:miter;stroke-opacity:1"
       d="m 157.67035,192.3615 c 0,0 13.14456,-33.51164 16.30292,-46.8815 2.955,-12.50888 2.57264,-31.60315 -1.8531,-35.13721 -4.42575,-3.53406 -10.24707,2.57829 -10.86062,9.81603 -0.61354,7.23773 -1.12742,9.06164 1.8435,22.86746 1.34679,6.25851 0.67415,21.09312 -1.15695,28.09458 -1.8311,7.00146 -5.82667,22.94607 -4.27575,21.24064 z"
       inkscape:connector-curvature="0" /></g></svg>